# xmcd
#
# Track frame offsets:
# 150
# 15516
# 28632
# 42652
# 56689
# 69457
# 83097
# 96460
# 109700
# 121804
# 137938
#
# Disc length: 2030 seconds
#
#
# Revision: 0
# Processed by: cddbd v1.5PL3 Copyright (c) Steve Scherf et al.
# Submitted via: FreeRIP 2.53 
#
DISCID=9407ec0b
DTITLE=Gosdin, Vern - 10 Years Of Greatest Hits
DYEAR=1900
DGENRE=
TTITLE0=If Your Gonna Do Me Wrong (Do it Right)
TTITLE1=Slow Burning Memory
TTITLE2=This Ain't My First Rodeo
TTITLE3=Today My World Slipped Away
TTITLE4=Way Down Deep
TTITLE5=Is It Raining At Your House
TTITLE6=Friday Night Feelin
TTITLE7=Till The End
TTITLE8=I Can Tell By The Way You Dance You're Gonna Love Me Tonight
TTITLE9=Time Stood Still
TTITLE10=Was It Just The Wine
EXTD=
EXTT0=
EXTT1=
EXTT2=
EXTT3=
EXTT4=
EXTT5=
EXTT6=
EXTT7=
EXTT8=
EXTT9=
EXTT10=
PLAYORDER=
